<svg width="539" height="615" viewBox="0 0 539 615" fill="none" xmlns="http://www.w3.org/2000/svg">
<path d="M332.153 412.543C312.372 412.543 291.179 412.497 269.129 412.497C247.087 412.497 225.883 412.543 206.107 412.543C128.697 412.544 73 411.831 73 404.825C73 400.168 97.6253 395.979 136.877 393.067V403.757H398.844V392.881C439.573 395.799 465.259 400.068 465.259 404.825C465.259 411.831 409.553 412.543 332.153 412.543Z" fill="#ECEAE9"/>
<path d="M338.02 188.352C338.02 227.775 306.061 259.732 266.64 259.732C227.216 259.732 195.257 227.775 195.257 188.352C195.257 148.929 227.216 116.972 266.64 116.972C306.061 116.972 338.02 148.929 338.02 188.352Z" fill="#50ACE4"/>
<path d="M314.1 129.664C314.1 167.035 283.807 197.329 246.433 197.329C209.064 197.329 178.769 167.035 178.769 129.664C178.769 92.2947 209.064 62 246.433 62C283.807 62 314.1 92.2947 314.1 129.664Z" fill="#A97AE4"/>
<path d="M352.56 125.289C352.56 145.947 335.812 162.692 315.153 162.692C294.497 162.692 277.749 145.947 277.749 125.289C277.749 104.631 294.497 87.8853 315.153 87.8853C335.812 87.8853 352.56 104.631 352.56 125.289Z" fill="#A97AE4"/>
<path d="M290.329 178.723C290.329 216.859 259.416 247.773 221.28 247.773C183.145 247.773 152.232 216.859 152.232 178.723C152.232 140.591 183.145 109.676 221.28 109.676C259.416 109.676 290.329 140.591 290.329 178.723Z" fill="#A97AE4"/>
<path d="M388.552 183.781C388.552 218.98 360.021 247.512 324.823 247.512C289.624 247.512 261.091 218.98 261.091 183.781C261.091 148.585 289.624 120.053 324.823 120.053C360.021 120.053 388.552 148.585 388.552 183.781Z" fill="#A97AE4"/>
<path d="M278.48 140.033C266.064 121.715 245.077 109.676 221.28 109.676C219.893 109.676 218.515 109.717 217.148 109.797V107.444H282.272C279.388 112.748 277.749 118.827 277.749 125.289C277.749 129.892 278.581 134.303 280.103 138.376C279.551 138.92 279.011 139.471 278.48 140.033Z" fill="#408EBF"/>
<path d="M263.693 201.868H217.148V109.797C218.515 109.717 219.893 109.676 221.28 109.676C245.077 109.676 266.064 121.715 278.48 140.033C267.7 151.448 261.091 166.844 261.091 183.781C261.091 190.064 262 196.136 263.693 201.868Z" fill="#408EBF"/>
<path d="M298.001 105.86L298.039 105.843H212.392V239.603H323.527V131.384L298.001 105.86Z" fill="#F4F5F5"/>
<path d="M303.691 117.615H218.793V116.153H303.691V117.615Z" fill="#E9EAE9"/>
<path d="M317.455 130.769H218.793V129.308H317.455V130.769Z" fill="#E9EAE9"/>
<path d="M317.455 143.924H218.793V142.463H317.455V143.924Z" fill="#E9EAE9"/>
<path d="M317.455 157.079H218.793V155.617H317.455V157.079Z" fill="#E9EAE9"/>
<path d="M317.455 170.233H218.793V168.772H317.455V170.233Z" fill="#E9EAE9"/>
<path d="M317.455 183.388H218.793V181.927H317.455V183.388Z" fill="#E9EAE9"/>
<path d="M317.455 196.542H218.793V195.081H317.455V196.542Z" fill="#E9EAE9"/>
<path d="M317.455 209.698H218.793V208.237H317.455V209.698Z" fill="#E9EAE9"/>
<path d="M317.455 222.854H218.793V221.392H317.455V222.854Z" fill="#E9EAE9"/>
<path d="M317.455 236.008H218.793V234.545H317.455V236.008Z" fill="#E9EAE9"/>
<path d="M323.537 131.395H298.001V105.86L323.537 131.395Z" fill="white"/>
<path d="M259.035 153.363C259.035 161.997 252.036 168.997 243.4 168.997C234.767 168.997 227.767 161.997 227.767 153.363C227.767 144.728 234.767 137.728 243.4 137.728C252.036 137.728 259.035 144.728 259.035 153.363Z" fill="white"/>
<path d="M254.991 153.363C254.991 159.764 249.801 164.953 243.4 164.953C236.999 164.953 231.809 159.764 231.809 153.363C231.809 146.961 236.999 141.771 243.4 141.771C249.801 141.771 254.991 146.961 254.991 153.363Z" fill="#3B393D"/>
<path d="M243.849 145.365C243.849 147.548 242.08 149.319 239.897 149.319C237.713 149.319 235.943 147.548 235.943 145.365C235.943 143.181 237.713 141.412 239.897 141.412C242.08 141.412 243.849 143.181 243.849 145.365Z" fill="white"/>
<path d="M237.895 153.619C237.895 154.704 237.015 155.584 235.932 155.584C234.845 155.584 233.967 154.704 233.967 153.619C233.967 152.535 234.845 151.656 235.932 151.656C237.015 151.656 237.895 152.535 237.895 153.619Z" fill="white"/>
<path d="M243.269 158.944C243.269 160.601 241.929 161.943 240.272 161.943C238.616 161.943 237.275 160.601 237.275 158.944C237.275 157.289 238.616 155.947 240.272 155.947C241.929 155.947 243.269 157.289 243.269 158.944Z" fill="white"/>
<path d="M253.407 155.248C249.944 155.787 249.509 156.223 248.972 159.684C248.435 156.223 247.999 155.787 244.537 155.248C247.999 154.712 248.435 154.276 248.972 150.815C249.509 154.276 249.944 154.712 253.407 155.248Z" fill="white"/>
<path d="M309.213 153.363C309.213 161.997 302.213 168.997 293.579 168.997C284.944 168.997 277.944 161.997 277.944 153.363C277.944 144.728 284.944 137.728 293.579 137.728C302.213 137.728 309.213 144.728 309.213 153.363Z" fill="white"/>
<path d="M305.168 153.363C305.168 159.764 299.981 164.953 293.579 164.953C287.176 164.953 281.989 159.764 281.989 153.363C281.989 146.961 287.176 141.771 293.579 141.771C299.981 141.771 305.168 146.961 305.168 153.363Z" fill="#3B393D"/>
<path d="M294.027 145.365C294.027 147.548 292.257 149.319 290.075 149.319C287.889 149.319 286.12 147.548 286.12 145.365C286.12 143.181 287.889 141.412 290.075 141.412C292.257 141.412 294.027 143.181 294.027 145.365Z" fill="white"/>
<path d="M288.072 153.619C288.072 154.704 287.193 155.584 286.108 155.584C285.025 155.584 284.144 154.704 284.144 153.619C284.144 152.535 285.025 151.656 286.108 151.656C287.193 151.656 288.072 152.535 288.072 153.619Z" fill="white"/>
<path d="M293.449 158.944C293.449 160.601 292.105 161.943 290.449 161.943C288.793 161.943 287.452 160.601 287.452 158.944C287.452 157.289 288.793 155.947 290.449 155.947C292.105 155.947 293.449 157.289 293.449 158.944Z" fill="white"/>
<path d="M303.585 155.248C300.123 155.787 299.687 156.223 299.151 159.684C298.612 156.223 298.176 155.787 294.715 155.248C298.176 154.712 298.612 154.276 299.151 150.815C299.687 154.276 300.123 154.712 303.585 155.248Z" fill="white"/>
<path d="M288.953 197.98C287.665 197.98 286.624 196.937 286.624 195.651C286.624 185.652 278.488 177.517 268.491 177.517C258.491 177.517 250.356 185.652 250.356 195.651C250.356 196.937 249.312 197.98 248.025 197.98C246.739 197.98 245.696 196.937 245.696 195.651C245.696 183.081 255.921 172.856 268.491 172.856C281.059 172.856 291.283 183.081 291.283 195.651C291.283 196.937 290.241 197.98 288.953 197.98Z" fill="#3B393D"/>
<path d="M398.844 403.757H136.877L136.891 201.868H398.833L398.844 403.757Z" fill="#AE804F"/>
<path d="M163.636 300.936H137.023L137.024 286.34H163.635L163.636 300.936Z" fill="#B68C60"/>
<path d="M163.636 334.933H137.023L137.024 320.336H163.635L163.636 334.933Z" fill="#B68C60"/>
<path d="M163.636 368.932H137.023L137.024 354.336H163.635L163.636 368.932Z" fill="#B68C60"/>
<path d="M398.796 300.936H372.184V286.34H398.795L398.796 300.936Z" fill="#B68C60"/>
<path d="M398.796 334.933H372.184V320.336H398.795L398.796 334.933Z" fill="#B68C60"/>
<path d="M398.796 368.932H372.184V354.336H398.795L398.796 368.932Z" fill="#B68C60"/>
<path d="M449.511 255.872L395.624 205.261L398.833 201.868L452.703 252.474L449.511 255.872Z" fill="#C0935C"/>
<path d="M86.2225 255.872L140.109 205.261L136.891 201.868L83.0332 252.474L86.2225 255.872Z" fill="#C0935C"/>
<path d="M416.321 268.992H119.4L136.891 201.868H398.833L416.321 268.992Z" fill="#C0935C"/>
<path d="M130.036 462.297V470.525H127.554V462.297L118.034 446.725H120.72L128.88 460.087L137.04 446.725H139.556L130.036 462.297ZM152.833 470.729C150.475 470.729 148.333 470.208 146.407 469.165C144.503 468.1 143.007 466.649 141.919 464.813C140.853 462.977 140.321 460.914 140.321 458.625C140.321 456.336 140.853 454.273 141.919 452.437C143.007 450.601 144.503 449.162 146.407 448.119C148.333 447.054 150.475 446.521 152.833 446.521C155.19 446.521 157.309 447.042 159.191 448.085C161.095 449.128 162.591 450.578 163.679 452.437C164.767 454.273 165.311 456.336 165.311 458.625C165.311 460.914 164.767 462.988 163.679 464.847C162.591 466.683 161.095 468.122 159.191 469.165C157.309 470.208 155.19 470.729 152.833 470.729ZM152.833 468.485C154.714 468.485 156.414 468.066 157.933 467.227C159.451 466.366 160.641 465.187 161.503 463.691C162.364 462.172 162.795 460.484 162.795 458.625C162.795 456.766 162.364 455.089 161.503 453.593C160.641 452.074 159.451 450.896 157.933 450.057C156.414 449.196 154.714 448.765 152.833 448.765C150.951 448.765 149.24 449.196 147.699 450.057C146.18 450.896 144.979 452.074 144.095 453.593C143.233 455.089 142.803 456.766 142.803 458.625C142.803 460.484 143.233 462.172 144.095 463.691C144.979 465.187 146.18 466.366 147.699 467.227C149.24 468.066 150.951 468.485 152.833 468.485ZM180.538 470.729C177.456 470.729 175.053 469.845 173.33 468.077C171.608 466.309 170.746 463.736 170.746 460.359V446.725H173.262V460.257C173.262 463.022 173.886 465.085 175.132 466.445C176.379 467.805 178.181 468.485 180.538 468.485C182.918 468.485 184.732 467.805 185.978 466.445C187.225 465.085 187.848 463.022 187.848 460.257V446.725H190.296V460.359C190.296 463.736 189.435 466.309 187.712 468.077C186.012 469.845 183.621 470.729 180.538 470.729ZM206.776 446.725H216.466C218.982 446.725 221.204 447.235 223.13 448.255C225.057 449.252 226.553 450.658 227.618 452.471C228.684 454.262 229.216 456.313 229.216 458.625C229.216 460.937 228.684 463 227.618 464.813C226.553 466.604 225.057 468.009 223.13 469.029C221.204 470.026 218.982 470.525 216.466 470.525H206.776V446.725ZM216.33 468.349C218.416 468.349 220.24 467.941 221.804 467.125C223.368 466.286 224.581 465.142 225.442 463.691C226.304 462.218 226.734 460.529 226.734 458.625C226.734 456.721 226.304 455.044 225.442 453.593C224.581 452.12 223.368 450.975 221.804 450.159C220.24 449.32 218.416 448.901 216.33 448.901H209.292V468.349H216.33ZM245.27 470.729C242.913 470.729 240.771 470.208 238.844 469.165C236.94 468.1 235.444 466.649 234.356 464.813C233.291 462.977 232.758 460.914 232.758 458.625C232.758 456.336 233.291 454.273 234.356 452.437C235.444 450.601 236.94 449.162 238.844 448.119C240.771 447.054 242.913 446.521 245.27 446.521C247.628 446.521 249.747 447.042 251.628 448.085C253.532 449.128 255.028 450.578 256.116 452.437C257.204 454.273 257.748 456.336 257.748 458.625C257.748 460.914 257.204 462.988 256.116 464.847C255.028 466.683 253.532 468.122 251.628 469.165C249.747 470.208 247.628 470.729 245.27 470.729ZM245.27 468.485C247.152 468.485 248.852 468.066 250.37 467.227C251.889 466.366 253.079 465.187 253.94 463.691C254.802 462.172 255.232 460.484 255.232 458.625C255.232 456.766 254.802 455.089 253.94 453.593C253.079 452.074 251.889 450.896 250.37 450.057C248.852 449.196 247.152 448.765 245.27 448.765C243.389 448.765 241.678 449.196 240.136 450.057C238.618 450.896 237.416 452.074 236.532 453.593C235.671 455.089 235.24 456.766 235.24 458.625C235.24 460.484 235.671 462.172 236.532 463.691C237.416 465.187 238.618 466.366 240.136 467.227C241.678 468.066 243.389 468.485 245.27 468.485ZM283.278 446.725V470.525H281.204L265.904 451.213V470.525H263.388V446.725H265.462L280.796 466.037V446.725H283.278ZM289.516 446.725H291.658L291.488 455.701H289.686L289.516 446.725ZM302.709 448.901H294.345V446.725H313.589V448.901H305.225V470.525H302.709V448.901ZM346.397 446.725V470.525H343.915V459.543H329.023V470.525H326.507V446.725H329.023V457.333H343.915V446.725H346.397ZM369.091 464.167H355.831L352.975 470.525H350.357L361.237 446.725H363.719L374.599 470.525H371.947L369.091 464.167ZM368.173 462.127L362.461 449.343L356.749 462.127H368.173ZM397.096 446.725L386.556 470.525H384.074L373.534 446.725H376.254L385.366 467.397L394.546 446.725H397.096ZM417.38 468.349V470.525H400.55V446.725H416.87V448.901H403.066V457.367H415.374V459.509H403.066V468.349H417.38Z" fill="#484848"/>
<path d="M119.55 531.775H100.95L97.1 540.525H91.95L107.8 505.525H112.75L128.65 540.525H123.4L119.55 531.775ZM117.8 527.775L110.25 510.625L102.7 527.775H117.8ZM147.299 505.525H162.049C165.749 505.525 169.032 506.258 171.899 507.725C174.765 509.192 176.982 511.258 178.549 513.925C180.149 516.558 180.949 519.592 180.949 523.025C180.949 526.458 180.149 529.508 178.549 532.175C176.982 534.808 174.765 536.858 171.899 538.325C169.032 539.792 165.749 540.525 162.049 540.525H147.299V505.525ZM161.749 536.175C164.582 536.175 167.065 535.625 169.199 534.525C171.365 533.425 173.032 531.892 174.199 529.925C175.365 527.925 175.949 525.625 175.949 523.025C175.949 520.425 175.365 518.142 174.199 516.175C173.032 514.175 171.365 512.625 169.199 511.525C167.065 510.425 164.582 509.875 161.749 509.875H152.299V536.175H161.749ZM212.007 540.525L204.457 529.775C203.524 529.842 202.791 529.875 202.257 529.875H193.607V540.525H188.607V505.525H202.257C206.791 505.525 210.357 506.608 212.957 508.775C215.557 510.942 216.857 513.925 216.857 517.725C216.857 520.425 216.191 522.725 214.857 524.625C213.524 526.525 211.624 527.908 209.157 528.775L217.457 540.525H212.007ZM202.107 525.625C205.274 525.625 207.691 524.942 209.357 523.575C211.024 522.208 211.857 520.258 211.857 517.725C211.857 515.192 211.024 513.258 209.357 511.925C207.691 510.558 205.274 509.875 202.107 509.875H193.607V525.625H202.107ZM247.236 531.775H228.636L224.786 540.525H219.636L235.486 505.525H240.436L256.336 540.525H251.086L247.236 531.775ZM245.486 527.775L237.936 510.625L230.386 527.775H245.486ZM266.557 509.875V522.075H284.107V526.375H266.557V540.525H261.557V505.525H286.257V509.875H266.557ZM336.823 505.525V540.525H331.823V524.925H311.723V540.525H306.723V505.525H311.723V520.575H331.823V505.525H336.823ZM372.699 536.175V540.525H347.299V505.525H371.999V509.875H352.299V520.625H369.849V524.875H352.299V536.175H372.699ZM404.195 540.525L396.645 529.775C395.712 529.842 394.978 529.875 394.445 529.875H385.795V540.525H380.795V505.525H394.445C398.978 505.525 402.545 506.608 405.145 508.775C407.745 510.942 409.045 513.925 409.045 517.725C409.045 520.425 408.378 522.725 407.045 524.625C405.712 526.525 403.812 527.908 401.345 528.775L409.645 540.525H404.195ZM394.295 525.625C397.462 525.625 399.878 524.942 401.545 523.575C403.212 522.208 404.045 520.258 404.045 517.725C404.045 515.192 403.212 513.258 401.545 511.925C399.878 510.558 397.462 509.875 394.295 509.875H385.795V525.625H394.295ZM442.523 536.175V540.525H417.123V505.525H441.823V509.875H422.123V520.625H439.673V524.875H422.123V536.175H442.523Z" fill="black"/>
</svg>