<svg width="62" height="69" viewBox="0 0 62 69" fill="none" xmlns="http://www.w3.org/2000/svg">
<path fill-rule="evenodd" clip-rule="evenodd" d="M35.008 0.907969C36.2186 -0.302656 38.1814 -0.302656 39.392 0.907969L51.792 13.308C53.0027 14.5186 53.0027 16.4814 51.792 17.692L17.692 51.792C17.1107 52.3734 16.3222 52.7 15.5 52.7H3.1C1.38792 52.7 0 51.3121 0 49.6V37.2C0 36.3778 0.326606 35.5893 0.907969 35.008L35.008 0.907969ZM6.2 38.4841V46.5H14.2159L45.2159 15.5L37.2 7.48406L6.2 38.4841Z" fill="#FFFFFF"/>
<path fill-rule="evenodd" clip-rule="evenodd" d="M0 65.1C0 63.3879 1.38792 62 3.1 62H58.9C60.6121 62 62 63.3879 62 65.1C62 66.8121 60.6121 68.2 58.9 68.2H3.1C1.38792 68.2 0 66.8121 0 65.1Z" fill="#FFFFFF"/>
</svg>