<svg width="62" height="69" viewBox="0 0 62 69" fill="none" xmlns="http://www.w3.org/2000/svg">
<path fill-rule="evenodd" clip-rule="evenodd" d="M0 15.5C0 13.7879 1.38792 12.4 3.1 12.4H58.9C60.6121 12.4 62 13.7879 62 15.5C62 17.2121 60.6121 18.6 58.9 18.6H3.1C1.38792 18.6 0 17.2121 0 15.5Z" fill="#FFFFFF"/>
<path fill-rule="evenodd" clip-rule="evenodd" d="M24.8 6.2C23.9778 6.2 23.1893 6.52661 22.608 7.10797C22.0266 7.68933 21.7 8.47783 21.7 9.3V12.4H40.3V9.3C40.3 8.47783 39.9734 7.68933 39.392 7.10797C38.8107 6.52661 38.0222 6.2 37.2 6.2H24.8ZM46.5 12.4V9.3C46.5 6.83348 45.5202 4.46799 43.7761 2.72391C42.032 0.979819 39.6665 0 37.2 0H24.8C22.3335 0 19.968 0.979819 18.2239 2.72391C16.4798 4.46799 15.5 6.83348 15.5 9.3V12.4H9.3C7.58792 12.4 6.2 13.7879 6.2 15.5V58.9C6.2 61.3665 7.17982 63.732 8.92391 65.4761C10.668 67.2202 13.0335 68.2 15.5 68.2H46.5C48.9665 68.2 51.332 67.2202 53.0761 65.4761C54.8202 63.732 55.8 61.3665 55.8 58.9V15.5C55.8 13.7879 54.4121 12.4 52.7 12.4H46.5ZM12.4 18.6V58.9C12.4 59.7222 12.7266 60.5107 13.308 61.092C13.8893 61.6734 14.6778 62 15.5 62H46.5C47.3222 62 48.1107 61.6734 48.692 61.092C49.2734 60.5107 49.6 59.7222 49.6 58.9V18.6H12.4Z" fill="#FFFFFF"/>
<path fill-rule="evenodd" clip-rule="evenodd" d="M24.8 27.9C26.5121 27.9 27.9 29.2879 27.9 31V49.6C27.9 51.3121 26.5121 52.7 24.8 52.7C23.0879 52.7 21.7 51.3121 21.7 49.6V31C21.7 29.2879 23.0879 27.9 24.8 27.9Z" fill="#FFFFFF"/>
<path fill-rule="evenodd" clip-rule="evenodd" d="M37.2 27.9C38.9121 27.9 40.3 29.2879 40.3 31V49.6C40.3 51.3121 38.9121 52.7 37.2 52.7C35.4879 52.7 34.1 51.3121 34.1 49.6V31C34.1 29.2879 35.4879 27.9 37.2 27.9Z" fill="#FFFFFF"/>
</svg>