<svg width="62" height="62" viewBox="0 0 62 62" fill="none" xmlns="http://www.w3.org/2000/svg">
<path d="M31 0C13.9069 0 0 13.9069 0 31C0 48.0931 13.9069 62 31 62C48.0931 62 62 48.0931 62 31C62 13.9069 48.0931 0 31 0ZM32.2917 59.3512V55.5416C32.2917 54.8276 31.714 54.2499 31 54.2499C30.286 54.2499 29.7083 54.8276 29.7083 55.5416V59.3512C15.0719 58.6885 3.31143 46.9281 2.64868 32.2916H6.45829C7.17226 32.2917 7.75 31.714 7.75 31C7.75 30.286 7.17226 29.7083 6.45829 29.7083H2.64868C3.31143 15.0719 15.0718 3.31143 29.7083 2.64868V6.45829C29.7083 7.17226 30.286 7.75 31 7.75C31.714 7.75 32.2917 7.17226 32.2917 6.45829V2.64868C46.9281 3.31143 58.6886 15.0718 59.3513 29.7083H55.5417C54.8277 29.7083 54.25 30.286 54.25 31C54.25 31.714 54.8277 32.2917 55.5417 32.2917H59.3513C58.6886 46.9281 46.9281 58.6886 32.2917 59.3512Z" fill="#565656"/>
<path d="M33.4559 31.6295C33.5093 31.4228 33.5833 31.2232 33.5833 31C33.5833 30.4593 33.3777 29.985 33.0925 29.5698L41.2122 12.1713C41.5138 11.5255 41.235 10.7559 40.5879 10.4545C39.9433 10.158 39.1739 10.4343 38.8711 11.0789L30.7572 28.4659C29.4523 28.5946 28.4167 29.6621 28.4167 31C28.4167 32.4241 29.576 33.5833 31 33.5833C31.2231 33.5833 31.4228 33.5093 31.6295 33.4559L41.7118 43.5382C41.964 43.7904 42.2946 43.9166 42.625 43.9166C42.9555 43.9166 43.286 43.7904 43.5383 43.5382C44.0429 43.0336 44.0429 42.2162 43.5383 41.7117L33.4559 31.6295Z" fill="#565656"/>
</svg>