<svg width="62" height="62" viewBox="0 0 62 62" fill="none" xmlns="http://www.w3.org/2000/svg">
<path d="M34.635 31.0161L61.2118 4.43927C62.2376 3.44862 62.266 1.81407 61.2754 0.788317C60.2847 -0.237436 58.6502 -0.265879 57.6244 0.724775C57.6029 0.745502 57.5817 0.766683 57.5609 0.788317L30.9839 27.3652L4.407 0.788166C3.38124 -0.202488 1.74669 -0.174045 0.75604 0.851708C-0.210408 1.85235 -0.210408 3.43863 0.75604 4.43927L27.3329 31.0161L0.75604 57.593C-0.252013 58.6012 -0.252013 60.2357 0.75604 61.2439C1.76424 62.2518 3.39879 62.2518 4.407 61.2439L30.9839 34.6671L57.5607 61.2439C58.5865 62.2346 60.221 62.2062 61.2117 61.1804C62.178 60.1798 62.178 58.5935 61.2117 57.593L34.635 31.0161Z" fill="#565656"/>
</svg>